<?xml version="1.0" encoding="utf-8"?>
<svg version="1.1" id="BSB002" xmlns="http://www.w3.org/2000/svg" x="0px" y="0px" viewBox="0 0 224 224" xml:space="preserve">
	<!--
		Manual created with love in gemany.
		© 2025 by Adrian Preuß, Licensed under MIT
	-->

	<defs>
		<linearGradient id="mainGradient" x1="0%" y1="0%" x2="100%" y2="100%">
	        <stop offset="0%" style="stop-color:#ffffff;stop-opacity:1" />
			<stop offset="100%" style="stop-color:#e0e0e0;stop-opacity:1" />
	     </linearGradient>

		<linearGradient id="buttonGradient" x1="0%" y1="0%" x2="100%" y2="100%">
			<stop offset="1.100000e-02" style="stop-color:#747474" />
			<stop offset="4.400000e-02" style="stop-color:#7D7D7D" />
			<stop offset="0.166" style="stop-color:#9F9F9F" />
			<stop offset="0.276" style="stop-color:#B9B9B9" />
			<stop offset="0.368" style="stop-color:#C8C8C8" />
			<stop offset="0.433" style="stop-color:#D0D0D0" />
			<stop offset="0.581" style="stop-color:#DFDFDF" />
			<stop offset="0.797" style="stop-color:#F6F6F6" />
			<stop offset="0.914" style="stop-color:#FFFFFF" />
	     </linearGradient>
	</defs>

	<style>
		@keyframes fadeIn {
            from {
                opacity: 0;
            }
            to {
                opacity: 1;
            }
        }

        #device {
            animation: fadeIn 0.3s ease-in;
        }

		#button:hover {
			cursor: pointer;
			opacity: 0.8;
			fill: url(#buttonHover);
		}
	</style>

	<g id="device">
		<g id="case">
			<path id="border" fill="#DDDDDD" d="M178.4,0H45.9C20.5,0,0,20.5,0,45.9v132.6c0,25.3,20.5,45.9,45.9,45.9h132.6c25.3,0,45.9-20.5,45.9-45.9 V45.9C224.3,20.5,203.8,0,178.4,0z" />
			<path id="body" fill="url(#mainGradient)" d="M178.4,2H45.9C20.5,2,0,22.6,0,47.9v128.5c0,25.3,20.5,45.9,45.9,45.9h132.6c25.3,0,45.9-20.5,45.9-45.9 V47.9C224.3,22.6,203.8,2,178.4,2z" />
		</g>

		<g id="button">
			<path id="conture" fill="url(#buttonGradient)" opacity="0.6" d="M112.2,162.1c27.6,0,50-22.4,50-50s-22.4-50-50-50s-50,22.4-50,50S84.6,162.1,112.2,162.1z" />
			<path id="ring" fill="#DDDDDD" d="M112.2,155.9c24.1,0,43.7-19.6,43.7-43.7s-19.6-43.7-43.7-43.7S68.5,88,68.5,112.2S88,155.9,112.2,155.9z" />
			<path fill="#EEEEEE" d="M112.2,151.4c21.7,0,39.2-17.6,39.2-39.2S133.8,73,112.2,73S73,90.6,73,112.2S90.5,151.4,112.2,151.4 L112.2,151.4z" />

			<g id="logo" fill="#666666">
				<path id="P" d="M88,115.4v-10h3.3c1.2,0,2.1,0.1,2.4,0.2c0.6,0.2,1.1,0.5,1.5,1s0.6,1.2,0.6,2c0,0.6-0.1,1.1-0.3,1.6 s-0.5,0.7-0.9,1s-0.7,0.4-1.1,0.5c-0.5,0.1-1.2,0.1-2.1,0.1H90v3.8H88z M90,107v2.8h1.1c0.8,0,1.3-0.1,1.6-0.2 c0.3-0.1,0.5-0.3,0.6-0.5s0.2-0.5,0.2-0.8c0-0.4-0.1-0.7-0.3-0.9s-0.5-0.4-0.8-0.4c-0.2,0-0.7-0.1-1.5-0.1H90z" />
				<path id="H" d="M97.4,115.4v-10h2v3.9h4v-3.9h2v10h-2V111h-4v4.4H97.4z" />
				<path id="I" d="M107.5,115.4v-10h2v10H107.5z" />
				<path id="L" d="M111.6,115.4v-9.9h2v8.3h5.1v1.7H111.6z" />
				<path id="I" d="M120.1,115.4v-10h2v10H120.1z" />
				<path id="P" d="M124.1,115.4v-10h3.3c1.2,0,2.1,0.1,2.4,0.2c0.6,0.2,1.1,0.5,1.5,1s0.6,1.2,0.6,2c0,0.6-0.1,1.1-0.3,1.6 s-0.5,0.7-0.9,1c-0.3,0.2-0.7,0.4-1.1,0.5c-0.5,0.1-1.2,0.1-2.1,0.1h-1.3v3.8H124.1z M126.1,107v2.8h1.1c0.8,0,1.3-0.1,1.6-0.2 s0.5-0.3,0.6-0.5s0.2-0.5,0.2-0.8c0-0.4-0.1-0.7-0.3-0.9c-0.2-0.2-0.5-0.4-0.8-0.4c-0.2,0-0.7-0.1-1.5-0.1H126.1z" />
				<path id="S" d="M133,112.1l2-0.2c0.1,0.7,0.4,1.1,0.7,1.5c0.4,0.3,0.9,0.5,1.5,0.5c0.7,0,1.2-0.1,1.5-0.4 c0.3-0.3,0.5-0.6,0.5-1c0-0.2-0.1-0.4-0.2-0.6s-0.4-0.3-0.7-0.4c-0.2-0.1-0.8-0.2-1.6-0.4c-1.1-0.3-1.9-0.6-2.3-1 c-0.6-0.6-0.9-1.2-0.9-2c0-0.5,0.1-1,0.4-1.4c0.3-0.4,0.7-0.8,1.3-1c0.5-0.2,1.2-0.3,2-0.3c1.3,0,2.2,0.3,2.9,0.8 c0.6,0.6,1,1.3,1,2.2l-2,0.1c-0.1-0.5-0.3-0.9-0.6-1.1c-0.3-0.2-0.7-0.3-1.3-0.3c-0.6,0-1.1,0.1-1.4,0.4 c-0.2,0.2-0.3,0.4-0.3,0.6c0,0.2,0.1,0.4,0.3,0.6c0.3,0.2,0.9,0.4,1.9,0.7s1.7,0.5,2.2,0.7s0.8,0.6,1.1,1s0.4,1,0.4,1.6 c0,0.6-0.2,1.1-0.5,1.6s-0.8,0.9-1.4,1.1c-0.6,0.2-1.3,0.4-2.2,0.4c-1.3,0-2.3-0.3-2.9-0.9C133.5,114.1,133.1,113.2,133,112.1z" />
			</g>
		</g>

		<g id="status">
			<g id="icons" transform="translate(27, 10)">
				<g id="power" transform="translate(0, 0)">
					<g fill="none" stroke="#AAAAAA" stroke-width="0.75" stroke-linecap="round">
						<circle cx="47.6" cy="18.1" r="3" />
						<line x1="47.6" y1="16.9" x2="47.6" y2="19.3" />
					</g>
				</g>

				<g id="connection" transform="translate(14, 0)">
					<g fill="#AAAAAA">
						<path d="M72.2,14.4c0.2,0,0.4,0.2,0.4,0.5s-0.2,0.5-0.4,0.5H71c-0.2,0-0.5-0.2-0.5-0.5s0.2-0.5,0.5-0.5H72.2 M72.2,13.7H71c-0.7,0-1.2,0.6-1.2,1.3s0.5,1.3,1.2,1.3h1.2c0.7,0,1.2-0.6,1.2-1.3S72.8,13.7,72.2,13.7L72.2,13.7z" />
						<path d="M69.8,19.9c0.2,0,0.5,0.2,0.5,0.5s-0.2,0.5-0.5,0.5h-1.2c-0.2,0-0.4-0.2-0.4-0.5s0.2-0.5,0.4-0.5H69.8 M69.8,19.1h-1.2c-0.7,0-1.2,0.6-1.2,1.3c0,0.7,0.5,1.3,1.2,1.3h1.2c0.7,0,1.2-0.6,1.2-1.3C71,19.7,70.4,19.1,69.8,19.1 L69.8,19.1z" />
						<path d="M75.2,19.9c0.2,0,0.4,0.2,0.4,0.5s-0.2,0.5-0.4,0.5H74c-0.2,0-0.5-0.2-0.5-0.5s0.2-0.5,0.5-0.5H75.2 M75.2,19.1H74c-0.7,0-1.2,0.6-1.2,1.3c0,0.7,0.5,1.3,1.2,1.3h1.2c0.7,0,1.2-0.6,1.2-1.3C76.4,19.7,75.8,19.1,75.2,19.1 L75.2,19.1z" />
					</g>
					<g fill="none" stroke="#AAAAAA" stroke-width="0.75" stroke-linecap="round" stroke-linejoin="round">
						<line x1="71.6" y1="16.3" x2="71.6" y2="18.1" />
						<line x1="69.2" y1="18.1" x2="74.6" y2="18.1" />
						<line x1="69.2" y1="18.1" x2="69.2" y2="19.1" />
						<line x1="74.6" y1="18.1" x2="74.6" y2="19.1" />
					</g>
				</g>

				<g id="status" transform="translate(25, -1)">
					<g fill="#AAAAAA">
						<path d="M97.7,15.5c1.9,0,3.5,1.6,3.5,3.5s-1.6,3.5-3.5,3.5s-3.5-1.6-3.5-3.5S95.8,15.5,97.7,15.5 M97.7,14.8 c-2.3,0-4.2,1.9-4.2,4.2s1.9,4.2,4.2,4.2s4.2-1.9,4.2-4.2S100,14.8,97.7,14.8L97.7,14.8z" />
						<path d="M97.7,15.5c0.8,0,1.4,1.6,1.4,3.5s-0.6,3.5-1.4,3.5s-1.4-1.6-1.4-3.5S96.9,15.5,97.7,15.5 M97.7,14.8 c-1.5,0-2.1,2.2-2.1,4.2s0.7,4.2,2.1,4.2s2.1-2.2,2.1-4.2S99.2,14.8,97.7,14.8L97.7,14.8z" />
						<line stroke="#AAAAAA" x1="94.2" y1="19" x2="101.1" y2="19" />
						<path d="M97.7,17.2c1.9,0,3.4,0.8,3.4,1.8s-1.5,1.8-3.4,1.8S94.3,20,94.3,19S95.8,17.2,97.7,17.2 M97.7,16.4 c-2.3,0-4.1,1.1-4.1,2.6s1.8,2.6,4.1,2.6s4.1-1.1,4.1-2.6S100,16.4,97.7,16.4L97.7,16.4z" />
					</g>
				</g>
			</g>
				<g id="lights" transform="translate(27, 10)">
				<g id="power" transform="translate(0, 0)">
					<circle fill="var(--power, #DDDDDDDD)" cx="47.5" cy="27.6" r="2" />
				</g>

					<g id="connection" transform="translate(14, 0)">
					<circle fill="var(--connection, #DDDDDDDD)" cx="71.5" cy="27.7" r="2" />
				</g>

					<g id="status" transform="translate(25, -1)">
					<circle fill="var(--status, #DDDDDDDD)" cx="97.7" cy="28.9" r="2" />
				</g>
			</g>
		</g>
	</g>
</svg>
