<?xml version="1.0" encoding="utf-8"?>
<svg version="1.1" id="BSB003" xmlns="http://www.w3.org/2000/svg" x="0px" y="0px" viewBox="0 0 224 224" xml:space="preserve">
	<!--
		Manual created with love in gemany.
		© 2025 by Adrian Preuß, Licensed under MIT
	-->

	<style>
		@keyframes fadeIn {
            from {
                opacity: 0;
            }
            to {
                opacity: 1;
            }
        }

        #device {
            animation: fadeIn 0.3s ease-in;
        }

		#button:hover {
			cursor: pointer;
			opacity: 0.8;
			fill: url(#buttonHover);
		}
	</style>

	<defs>
		<linearGradient id="case" x1="0%" y1="0%" x2="100%" y2="100%">
            <stop offset="0%" style="stop-color:#111111;stop-opacity:1" />
			<stop offset="100%" style="stop-color:#000000;stop-opacity:1" />
        </linearGradient>
		<linearGradient id="buttonBackground" x1="0%" y1="0%" x2="100%" y2="100%">
			<stop offset="0%" style="stop-color:#000000;stop-opacity:1" />
            <stop offset="1000%" style="stop-color:#111111;stop-opacity:1" />
        </linearGradient>
		<radialGradient id="buttonHover" cx="30%" cy="30%">
            <stop offset="0%" style="stop-color:#444444;stop-opacity:0.6" />
			<stop offset="100%" style="stop-color:#FFFFFF;stop-opacity:0" />
        </radialGradient>
	</defs>

	<g id="device">
		<g id="case">
			<path id="side" fill="#444444" d="M179.2,0H44.8C20.1,0,0,20.1,0,44.8v134.4C0,203.9,20.1,224,44.8,224h134.4 c24.7,0,44.8-20.1,44.8-44.8V44.8C224,20.1,203.9,0,179.2,0z" />
			<path id="front" fill="url(#case)" d="M224,179.2v-133c0-24.7-20.1-44.8-44.8-44.8H44.8C20.1,1.4,0,21.5,0,46.2v133 C0,203.9,20.1,224,44.8,224h134.4C203.9,224,224,203.9,224,179.2z" />
		</g>

		<g id="button">
			<g id="background">
				<path d="M112,174c-34.9,0-63.3-28.4-63.3-63.2S77.1,47.6,112,47.6c34.9,0,63.3,28.4,63.3,63.2 S146.9,174,112,174z" />
				<path d="M112,172.9c-34.3,0-62.2-27.9-62.2-62.1S77.7,48.7,112,48.7s62.2,27.9,62.2,62.1 S146.3,172.9,112,172.9z" />
				<path d="M111.9,172.9c34.3,0,62.1-27.8,62.1-62.1c0-34.3-27.8-62.1-62.1-62.1c-34.3,0-62.1,27.8-62.1,62.1 C49.8,145.1,77.6,172.9,111.9,172.9z" />
				<path fill="url(#buttonBackground)" d="M112,172.9c-34.3,0-62.2-27.9-62.2-62.1S77.7,48.7,112,48.7s62.2,27.9,62.2,62.1S146.3,172.9,112,172.9z" />
				<path fill="#222222" d="M112,49.8c33.7,0,61,27.4,61,61s-27.4,61-61,61s-61-27.4-61-61S78.3,49.8,112,49.8z M112,48.7c-34.3,0-62.2,27.9-62.2,62.1s27.9,62.1,62.2,62.1s62.2-27.9,62.2-62.1S146.3,48.7,112,48.7L112,48.7z" />
			</g>
			<g id="logo">
				<path fill="#444444" d="M128.8,118.3c-3.8,0-6.6-2.2-7-5.5l0,0h-1.1c-0.1-0.6-0.1-1.3,0-1.9h1.2l0,0 c0.6-3.1,3.3-5.1,6.9-5.1c3.8,0,6.5,2.5,6.5,6.1v0.9l-11.1,0l0,0.1c0.4,2,2.2,3.3,4.5,3.3c1.7,0,3.1-0.7,3.9-1.9l2.2,0.8 C134.1,116.5,132.1,118.3,128.8,118.3L128.8,118.3z M128.6,107.8c-2.1,0-3.8,1.1-4.3,2.8l-0.1,0.2h8.5l0-0.2 C132.6,109.3,131,107.8,128.6,107.8L128.6,107.8z M113.2,118.3c-1.4,0-2.6-0.2-3.5-0.7c-0.9-0.5-1.6-1.1-2.1-1.9 c-0.4-0.8-0.7-1.7-0.7-2.8h2.7c0,0.6,0.2,1.1,0.4,1.6c0.3,0.5,0.7,0.9,1.1,1.2c0.5,0.3,1.2,0.4,2,0.4c0.8,0,1.5-0.1,2-0.4 c0.5-0.3,0.9-0.7,1.1-1.2c0.2-0.4,0.4-1,0.4-1.6h2.7c0,1.1-0.2,2.1-0.7,2.8c-0.5,0.8-1.1,1.4-2.1,1.9 C115.7,118.1,114.6,118.3,113.2,118.3L113.2,118.3z M102.1,118v-5.2h2.7v5.2H102.1z M92.3,118v-5.2H95v5.2H92.3z M116.7,110.8 v-4.8h2.7v4.8H116.7z M107,110.8v-4.8h2.7v4.8H107z M102,110.8c-0.4-1.7-1.5-2.6-3.3-2.6c-1.9,0-3.2,0.9-3.6,2.6h-2.8V103 c0.6-0.7,1.6-1.3,2.7-1.6v6.2l0.1-0.1c1-1.2,2.6-1.8,4.5-1.8c3,0,5,1.9,5.2,5.1C104.7,110.8,102,110.8,102,110.8z" />
				<path fill="#000000" d="M128.2,117.7c-3.8,0-6.6-2.2-7-5.5l0,0h-1.1c-0.1-0.6-0.1-1.3,0-1.9h1.2l0,0 c0.6-3.1,3.3-5.1,6.9-5.1c3.8,0,6.5,2.5,6.5,6.1v0.9l-11.1,0l0,0.1c0.4,2,2.2,3.3,4.5,3.3c1.7,0,3.1-0.7,3.9-1.9l2.2,0.8 C133.6,116,131.5,117.7,128.2,117.7L128.2,117.7z M128.1,107.3c-2.1,0-3.8,1.1-4.3,2.8l-0.1,0.2h8.5l0-0.2 C132,108.7,130.4,107.3,128.1,107.3L128.1,107.3z M112.6,117.7c-1.4,0-2.6-0.2-3.5-0.7c-0.9-0.5-1.6-1.1-2.1-1.9 c-0.4-0.8-0.7-1.7-0.7-2.8h2.7c0,0.6,0.2,1.1,0.4,1.6c0.3,0.5,0.7,0.9,1.1,1.2c0.5,0.3,1.2,0.4,2,0.4c0.8,0,1.5-0.1,2-0.4 c0.5-0.3,0.9-0.7,1.1-1.2c0.2-0.4,0.4-1,0.4-1.6h2.7c0,1.1-0.2,2.1-0.7,2.8c-0.5,0.8-1.1,1.4-2.1,1.9 C115.2,117.5,114,117.7,112.6,117.7L112.6,117.7z M101.5,117.5v-5.2h2.7v5.2H101.5z M91.7,117.5v-5.2h2.7v5.2H91.7z M116.1,110.2v-4.8h2.7v4.8H116.1z M106.4,110.2v-4.8h2.7v4.8H106.4z M101.4,110.2c-0.4-1.7-1.5-2.6-3.3-2.6 c-1.9,0-3.2,0.9-3.6,2.6h-2.8v-7.7c0.6-0.7,1.6-1.3,2.7-1.6v6.2l0.1-0.1c1-1.2,2.6-1.8,4.5-1.8c3,0,5,1.9,5.2,5.1 C104.2,110.2,101.4,110.2,101.4,110.2z" />
			</g>
		</g>

		<g id="lights" transform="translate(35, 12)">
			<g transform="translate(20, 0)">
				<circle class="st6" cx="67.3" cy="13" r="2" fill="var(--connection, #333333)" />
				<g id="sides" stroke="var(--connection, #333333)" stroke-width="1.967" stroke-linecap="round" stroke-miterlimit="10">
					<path class="st5" d="M63.8,10.5c-1.1,1.5-0.9,3.9,0.2,5" />
					<path class="st5" d="M70.7,10.6c1.1,1.7,1.1,3.3,0.1,4.9" />
				</g>
			</g>
			<circle class="st7" cx="65.6" cy="13" r="3" fill="var(--status, #333333)" />
	    </g>
	</g>
</svg>