<?xml version="1.0" encoding="utf-8"?>
<svg version="1.1" id="BSB002" xmlns="http://www.w3.org/2000/svg" x="0px" y="0px" viewBox="0 0 224 224" xml:space="preserve">
	<!--
		Manual created with love in gemany.
		© 2025 by Adrian Preuß, Licensed under MIT
	-->

	<defs>
		<linearGradient id="mainGradient" x1="0%" y1="0%" x2="100%" y2="100%">
            <stop offset="0%" style="stop-color:#ffffff;stop-opacity:1" />
			<stop offset="100%" style="stop-color:#e0e0e0;stop-opacity:1" />
        </linearGradient>
	</defs>

	<style>
		@keyframes fadeIn {
            from {
                opacity: 0;
            }
            to {
                opacity: 1;
            }
        }

        #device {
            animation: fadeIn 0.3s ease-in;
        }
	</style>

	<g id="device">
		<g id="case" opacity="0.3">
			<path fill="#d0d0d0" d="M178.4,0H45.9C20.5,0,0,20.5,0,45.9v132.6c0,25.3,20.5,45.9,45.9,45.9h132.6c25.3,0,45.9-20.5,45.9-45.9 V45.9C224.3,20.5,203.8,0,178.4,0z" />
			<path fill="url(#mainGradient)" d="M178.4,0H45.9C20.5,0,0,20.5,0,45.9v132.6c0,25.3,20.5,45.9,45.9,45.9h132.6c25.3,0,45.9-20.5,45.9-45.9 V45.9C224.3,20.5,203.8,0,178.4,0z" />
		</g>

		<g id="button" fill="#44444480">
	        <path d="M119.3,134.1h-15.6c0-2.2-0.1-3.6-0.1-4.1c0-5,0.8-9.2,2.5-12.5c1.7-3.3,5-6.9,10-11c5-4.1,8-6.7,9-8 c1.5-2,2.3-4.2,2.3-6.6c0-3.3-1.3-6.2-4-8.6c-2.7-2.4-6.3-3.6-10.8-3.6c-4.4,0-8,1.2-10.9,3.7c-2.9,2.5-4.9,6.3-6,11.4l-15.7-2 c0.4-7.3,3.5-13.5,9.3-18.6c5.8-5.1,13.3-7.6,22.7-7.6c9.8,0,17.7,2.6,23.5,7.7c5.8,5.1,8.7,11.1,8.7,18c0,3.8-1.1,7.4-3.2,10.7 c-2.1,3.4-6.7,8-13.7,13.8c-3.6,3-5.9,5.4-6.7,7.3C119.6,126.1,119.2,129.4,119.3,134.1z M103.7,157.2V140h17.2v17.2H103.7z" />
		</g>
	</g>
</svg>
