<?xml version="1.0" encoding="utf-8"?>
<svg version="1.1" id="Ebene_1" xmlns="http://www.w3.org/2000/svg" x="0px" y="0px" viewBox="0 0 148 72" xml:space="preserve">
	<!--
		Manual created with love in gemany.
		© 2025 by Adrian Preuß, Licensed under MIT
	-->

	<defs>
		<linearGradient id="rainbowDefault" gradientUnits="userSpaceOnUse" x1="147.7" y1="795.25" x2="0.3" y2="795.25" gradientTransform="matrix(1 0 0 1 0 -752)">
			<stop offset="0" style="stop-color:#E20613" />
			<stop offset="7.400000e-02" style="stop-color:#E6350D" />
			<stop offset="0.139" style="stop-color:#E95809" />
			<stop offset="0.173" style="stop-color:#EB6608" />
			<stop offset="0.254" style="stop-color:#F18B07" />
			<stop offset="0.326" style="stop-color:#F7A607" />
			<stop offset="0.369" style="stop-color:#F9B107" />
			<stop offset="0.417" style="stop-color:#EAB30A" />
			<stop offset="0.509" style="stop-color:#C4B813" />
			<stop offset="0.612" style="stop-color:#93C01F" />
			<stop offset="0.666" style="stop-color:#73B942" />
			<stop offset="0.77" style="stop-color:#3BAE81" />
			<stop offset="0.82" style="stop-color:#26AA9A" />
			<stop offset="0.878" style="stop-color:#1B989E" />
			<stop offset="0.995" style="stop-color:#016CA9" />
			<stop offset="1" style="stop-color:#006AAA" />
		</linearGradient>

		<linearGradient id="rainbowInverted" gradientUnits="userSpaceOnUse" x1="-0.67" y1="768.8" x2="139.3613" y2="768.8" gradientTransform="matrix(1 0 0 1 0 -752)">
			<stop offset="0" style="stop-color:#E20613" />
			<stop offset="7.400000e-02" style="stop-color:#E6350D" />
			<stop offset="0.139" style="stop-color:#E95809" />
			<stop offset="0.173" style="stop-color:#EB6608" />
			<stop offset="0.254" style="stop-color:#F18B07" />
			<stop offset="0.326" style="stop-color:#F7A607" />
			<stop offset="0.369" style="stop-color:#F9B107" />
			<stop offset="0.417" style="stop-color:#EAB30A" />
			<stop offset="0.509" style="stop-color:#C4B813" />
			<stop offset="0.612" style="stop-color:#93C01F" />
			<stop offset="0.666" style="stop-color:#73B942" />
			<stop offset="0.77" style="stop-color:#3BAE81" />
			<stop offset="0.82" style="stop-color:#26AA9A" />
			<stop offset="0.878" style="stop-color:#1B989E" />
			<stop offset="0.995" style="stop-color:#016CA9" />
			<stop offset="1" style="stop-color:#006AAA" />
		</linearGradient>
	</defs>

	<style>
		@keyframes fadeIn {
            from {
                opacity: 0;
            }
            to {
                opacity: 1;
            }
        }

        #logo {
            animation: fadeIn 0.3s ease-in;
        }
	</style>

	<g id="logo">
		<g id="virt" fill="url(#rainbowInverted)">
			<path id="V" class="st1" d="M18.1,8c0.5,0,1,0.4,1.1,0.9l1.7,6.6c0.4,1.4,0.6,2.8,0.8,4.2h0.1c0.2-1.5,0.4-2.7,0.8-4.2l1.6-6.6 C24.3,8.3,24.8,8,25.3,8h4.3c0.8,0,1.4,0.8,1.1,1.5l-5.6,15.4c-0.2,0.5-0.6,0.8-1.1,0.8h-4.9c-0.5,0-0.9-0.3-1.1-0.8L12.5,9.5 C12.3,8.7,12.8,8,13.6,8L18.1,8z" />
			<path id="I" class="st2" d="M43.6,3.1c0,1.7-1.3,3.1-3.3,3.1S37,4.9,37,3.1C37,1.3,38.3,0,40.3,0S43.6,1.3,43.6,3.1z M37.1,22.7 V8.9C37.1,8.4,37.5,8,38,8h4.6c0.5,0,0.9,0.4,0.9,0.9v15.8c0,0.5-0.4,0.9-0.9,0.9h-2.6C38.4,25.7,37.1,24.3,37.1,22.7z" />
			<path id="R" class="st3" d="M51.2,13.9c0-2.8,0-4.5-0.1-6H56c0.3,0,0.6,0.3,0.6,0.6l0.2,2.6h0.1c0.9-2.7,3.2-3.6,4.7-3.6 c0.6,0,0.8,0,1.3,0.1v5.4c0,0.4-0.3,0.7-0.7,0.6c-0.3,0-0.6-0.1-1-0.1c-1.9,0-3.2,0.8-3.5,2.2c-0.1,0.3-0.1,0.7-0.1,1.1v8.1 c0,0.3-0.3,0.6-0.6,0.6h-5.3c-0.3,0-0.6-0.3-0.6-0.6v-11H51.2z" />
			<path id="T" class="st4" d="M76.4,3.6v3.6c0,0.3,0.3,0.6,0.6,0.6h2.5c0.3,0,0.6,0.3,0.6,0.6V12c0,0.3-0.3,0.6-0.6,0.6H77 c-0.3,0-0.6,0.3-0.6,0.6v4.5c0,2.1,0.5,3,2.1,3c0.3,0,0.6,0,0.8,0c0.4,0,0.7,0.3,0.7,0.6v0.8c0,2.1-1.7,3.9-3.8,3.9c0,0,0,0-0.1,0 c-1.9,0-3.5-0.7-4.4-1.6c-1.1-1.1-1.6-2.8-1.6-5.5v-5.6c0-0.3-0.3-0.6-0.6-0.6h-1c-0.3,0-0.6-0.3-0.6-0.6V8.6 c0-0.3,0.3-0.6,0.6-0.6h1c0.3,0,0.6-0.3,0.6-0.6V4.8c0-0.3,0.2-0.5,0.5-0.6L75.6,3C76,2.9,76.4,3.2,76.4,3.6z" />
		</g>
		<g id="hue" fill="url(#rainbowDefault)">
			<path d="M125.4,72c-12.9,0-22.4-7.5-23.8-18.7v-0.1h-3.8c-0.4-2.2-0.4-4.4,0-6.6h4v-0.1c2-10.5,11.5-17.5,23.6-17.5 c13.1,0,22.3,8.6,22.3,21v3.2l-37.8-0.1v0.2c1.3,6.8,7.4,11.2,15.5,11.2c4.6,0,8.7-1.6,11.5-4.3c1.3-1.3,3.4-1.7,5.1-1.1l4.4,1.6 C143.8,65.9,136.7,72,125.4,72L125.4,72z M125,36.2c-7.2,0-12.8,3.7-14.6,9.7l-0.2,0.6h29.1l-0.1-0.5 C138.4,41.2,132.9,36.2,125,36.2L125,36.2z M71.9,72c-4.8,0-8.8-0.8-11.9-2.3c-3.1-1.5-5.5-3.7-7-6.5c-1.5-2.7-2.3-6-2.3-9.7H60 c0.1,2.1,0.5,3.9,1.3,5.4c0.9,1.7,2.2,3.1,3.9,4c1.7,0.9,4,1.4,6.8,1.4c2.8,0,5.1-0.5,6.8-1.4c1.7-0.9,3.1-2.3,3.9-4 c0.8-1.5,1.2-3.3,1.3-5.4h9.3c0,3.8-0.8,7-2.3,9.7c-1.5,2.8-3.9,5-7,6.5C80.7,71.2,76.7,72,71.9,72L71.9,72z M33.9,68.1V53.4h9.2 v14.7c0,1.7-1.3,3-3,3h-2.8C35.2,71.1,33.9,69.8,33.9,68.1z M0.3,68.1V53.4h9.2v14.7c0,1.7-1.3,3-3,3H3.3 C1.6,71.1,0.3,69.8,0.3,68.1z M84,46.2V31.8c0-1.1,0.9-2,2-2h4.2c1.7,0,3,1.3,3,3v13.5H84z M50.7,46.2V32.8c0-1.7,1.3-3,3-3h3.2 c1.7,0,3,1.3,3,3v13.5H50.7z M33.5,46.2c-1.3-5.7-5.3-8.9-11.3-8.9c-6.5,0-10.8,3.2-12.2,8.9H0.3V19.9c2.2-2.6,5.5-4.5,9.2-5.4 v21.1l0.3-0.3c3.4-4,9-6.2,15.3-6.2c10.4,0,17.1,6.5,17.9,17.3L33.5,46.2L33.5,46.2z" />
		</g>
	</g>
</svg>
